# xmcd CD database file
#
# Track frame offsets:
#	150
#	15400
#	32150
#	52874
#	64287
#
# Disc length: 1007 seconds
#
# Revision: 2
# Processed by: cddbd v1.4b41PL1 Copyright (c) Steve Scherf et al.
# Submitted via: Feurio! 1.50.2ß - http://www.feurio.com
#
DISCID=3603ed05
DTITLE=Various Artist - Tächa Band und Multivision
DYEAR=1900
DGENRE=
TTITLE0=Tächa Band - Tächa (von Allmen, CD 97)
TTITLE1=Tächa Band - Wengen (von Allmen, CD 97)
TTITLE2=Tächa Band - Lang bini gsyn (von Allmen, CD 97)
TTITLE3=Tächa Band - Irskalä (Maurer, live 99)
TTITLE4=Tächa Bänd - Rosalina village 3 (Maurer, live 99)
EXTD=
EXTT0=
EXTT1=
EXTT2=
EXTT3=
EXTT4=
PLAYORDER=
